<svg width="24" height="24" viewBox="0 0 24 24" fill="none" xmlns="http://www.w3.org/2000/svg">
<path d="M2 19C2.44203 19 2.86595 18.8127 3.17851 18.4793C3.49107 18.1459 3.66667 17.6937 3.66667 17.2222V3.88889C3.66667 3.65314 3.75446 3.42705 3.91074 3.26035C4.06702 3.09365 4.27899 3 4.5 3H21.1667C21.3877 3 21.5996 3.09365 21.7559 3.26035C21.9122 3.42705 22 3.65314 22 3.88889V17.2222C22 17.6937 21.8244 18.1459 21.5118 18.4793C21.1993 18.8127 20.7754 19 20.3333 19H2Z" fill="#715AE4" stroke="#715AE4" stroke-width="2" stroke-linecap="round" stroke-linejoin="round"/>
<path d="M9 9H17.125" stroke="white" stroke-width="2" stroke-linecap="round" stroke-linejoin="round"/>
<path d="M9 12.25H17.125" stroke="white" stroke-width="2" stroke-linecap="round" stroke-linejoin="round"/>
<path d="M2 19C1.73478 19 1.48043 18.8194 1.29289 18.4979C1.10536 18.1764 1 17.7404 1 17.2857V7" stroke="#715AE4" stroke-width="2" stroke-linecap="round" stroke-linejoin="round"/>
</svg>
