<svg width="24" height="24" viewBox="0 0 24 24" fill="none" xmlns="http://www.w3.org/2000/svg">
<mask id="path-1-outside-1_1000_1448" maskUnits="userSpaceOnUse" x="7.69232" y="3" width="9" height="9" fill="black">
<rect fill="white" x="7.69232" y="3" width="9" height="9"/>
<path d="M14.3077 7.30769C14.3077 8.5822 13.2745 9.61538 12 9.61538C10.7255 9.61538 9.69232 8.5822 9.69232 7.30769C9.69232 6.03319 10.7255 5 12 5C13.2745 5 14.3077 6.03319 14.3077 7.30769Z"/>
</mask>
<path d="M12.3077 7.30769C12.3077 7.47763 12.1699 7.61538 12 7.61538V11.6154C14.3791 11.6154 16.3077 9.68677 16.3077 7.30769H12.3077ZM12 7.61538C11.8301 7.61538 11.6923 7.47763 11.6923 7.30769H7.69232C7.69232 9.68677 9.62094 11.6154 12 11.6154V7.61538ZM11.6923 7.30769C11.6923 7.13776 11.8301 7 12 7V3C9.62094 3 7.69232 4.92862 7.69232 7.30769H11.6923ZM12 7C12.1699 7 12.3077 7.13776 12.3077 7.30769H16.3077C16.3077 4.92862 14.3791 3 12 3V7Z" fill="#BFBFBF" mask="url(#path-1-outside-1_1000_1448)"/>
<mask id="path-3-inside-2_1000_1448" fill="white">
<path fill-rule="evenodd" clip-rule="evenodd" d="M8.82692 15.0769H15.1731C17.4141 15.0769 19.2308 16.8936 19.2308 19.1346C19.2308 19.4316 19.1989 19.7211 19.1383 20H21.1694C21.2098 19.7173 21.2308 19.4284 21.2308 19.1346C21.2308 15.789 18.5186 13.0769 15.1731 13.0769H8.82692C5.48135 13.0769 2.76923 15.789 2.76923 19.1346C2.76923 19.4284 2.79014 19.7173 2.83057 20H4.86171C4.80113 19.7211 4.76923 19.4316 4.76923 19.1346C4.76923 16.8936 6.58592 15.0769 8.82692 15.0769Z"/>
</mask>
<path d="M19.1383 20L17.1839 19.5754C17.0554 20.1666 17.2015 20.7842 17.5812 21.2551C17.9609 21.7261 18.5333 22 19.1383 22V20ZM21.1694 20V22C22.1646 22 23.0084 21.2683 23.1493 20.2832L21.1694 20ZM2.83057 20L0.850724 20.2832C0.991637 21.2683 1.83541 22 2.83057 22V20ZM4.86171 20V22C5.46668 22 6.03914 21.7261 6.41881 21.2551C6.79848 20.7841 6.94455 20.1666 6.81613 19.5754L4.86171 20ZM15.1731 13.0769H8.82692V17.0769H15.1731V13.0769ZM21.2308 19.1346C21.2308 15.789 18.5186 13.0769 15.1731 13.0769V17.0769C16.3095 17.0769 17.2308 17.9982 17.2308 19.1346H21.2308ZM21.0927 20.4245C21.1834 20.0071 21.2308 19.5752 21.2308 19.1346H17.2308C17.2308 19.2879 17.2143 19.4352 17.1839 19.5754L21.0927 20.4245ZM19.1383 22H21.1694V18H19.1383V22ZM23.1493 20.2832C23.2031 19.907 23.2308 19.5235 23.2308 19.1346H19.2308C19.2308 19.3334 19.2166 19.5277 19.1896 19.7168L23.1493 20.2832ZM23.2308 19.1346C23.2308 14.6845 19.6232 11.0769 15.1731 11.0769V15.0769C17.4141 15.0769 19.2308 16.8936 19.2308 19.1346H23.2308ZM15.1731 11.0769H8.82692V15.0769H15.1731V11.0769ZM8.82692 11.0769C4.37678 11.0769 0.769226 14.6845 0.769226 19.1346H4.76923C4.76923 16.8936 6.58592 15.0769 8.82692 15.0769V11.0769ZM0.769226 19.1346C0.769226 19.5235 0.796919 19.907 0.850724 20.2832L4.81042 19.7168C4.78337 19.5277 4.76923 19.3334 4.76923 19.1346H0.769226ZM2.83057 22H4.86171V18H2.83057V22ZM2.76923 19.1346C2.76923 19.5752 2.81661 20.0071 2.90729 20.4245L6.81613 19.5754C6.78566 19.4352 6.76923 19.288 6.76923 19.1346H2.76923ZM8.82692 13.0769C5.48135 13.0769 2.76923 15.789 2.76923 19.1346H6.76923C6.76923 17.9982 7.69049 17.0769 8.82692 17.0769V13.0769Z" fill="#BFBFBF" mask="url(#path-3-inside-2_1000_1448)"/>
</svg>
